<svg width="19" height="19" viewBox="0 0 19 19" fill="none" xmlns="http://www.w3.org/2000/svg">
<path d="M5.65381 5.50513V3.25513C5.65381 2.65839 5.89086 2.08609 6.31282 1.66414C6.73478 1.24218 7.30707 1.00513 7.90381 1.00513H10.9038C11.5005 1.00513 12.0728 1.24218 12.4948 1.66414C12.9168 2.08609 13.1538 2.65839 13.1538 3.25513C13.1538 3.85186 12.9168 4.42416 12.4948 4.84612C12.0728 5.26807 11.5005 5.50513 10.9038 5.50513H1.15381V13.7551C1.15381 14.7497 1.5489 15.7035 2.25216 16.4068C2.95542 17.11 3.90925 17.5051 4.90381 17.5051H13.9038C14.8984 17.5051 15.8522 17.11 16.5555 16.4068C17.2587 15.7035 17.6538 14.7497 17.6538 13.7551V5.50513H14.9038" stroke="#111111" stroke-width="1.5"/>
</svg>
