<svg width="22" height="19" viewBox="0 0 22 19" fill="none" xmlns="http://www.w3.org/2000/svg">
<path d="M16.1978 1.00514C17.5218 1.00514 18.7658 1.52114 19.7018 2.45614C20.63 3.38606 21.1513 4.64626 21.1513 5.96014C21.1513 7.27403 20.63 8.53423 19.7018 9.46414L11.4038 17.7631L3.10483 9.46414C2.17694 8.53427 1.65582 7.27428 1.65582 5.96064C1.65582 4.64701 2.17694 3.38702 3.10483 2.45714C3.56386 1.99544 4.10991 1.62938 4.71138 1.38014C5.31284 1.1309 5.95777 1.00345 6.60883 1.00514C7.93283 1.00514 9.17683 1.52114 10.1128 2.45614L10.8728 3.21614L11.4038 3.74714L11.9338 3.21614L12.6938 2.45614C13.153 1.99476 13.6992 1.62897 14.3006 1.37991C14.902 1.13086 15.5469 1.00348 16.1978 1.00514Z" stroke="#111111" stroke-width="1.5"/>
</svg>
