<svg width="19" height="19" viewBox="0 0 19 19" fill="none" xmlns="http://www.w3.org/2000/svg">
<path d="M11.3658 13.5511C10.3198 14.1775 9.12302 14.5073 7.90381 14.5051C7.01721 14.5063 6.13911 14.3323 5.31999 13.993C4.50087 13.6537 3.75689 13.1559 3.13082 12.5281C2.50305 11.9021 2.00521 11.1581 1.66593 10.339C1.32665 9.51984 1.15261 8.64174 1.15381 7.75513C1.15381 5.89113 1.90882 4.20413 3.13082 2.98213C3.75689 2.35436 4.50087 1.85653 5.31999 1.51725C6.13911 1.17796 7.01721 1.00392 7.90381 1.00513C9.76781 1.00513 11.4548 1.76013 12.6768 2.98213C13.3046 3.60821 13.8024 4.35219 14.1417 5.17131C14.481 5.99043 14.655 6.86853 14.6538 7.75513C14.6556 8.95253 14.3376 10.1287 13.7328 11.1621C13.2158 12.0441 13.2988 13.1501 14.0218 13.8731L17.8748 17.7261" stroke="#111111" stroke-width="1.5"/>
</svg>
