<svg width="48" height="48" viewBox="0 0 48 48" fill="none" xmlns="http://www.w3.org/2000/svg">
<g clip-path="url(#clip0_7_204)">
<path d="M14 36C11.8 36 10.02 37.8 10.02 40C10.02 42.2 11.8 44 14 44C16.2 44 18 42.2 18 40C18 37.8 16.2 36 14 36ZM2 4V8H6L13.2 23.18L10.5 28.08C10.18 28.64 10 29.3 10 30C10 32.2 11.8 34 14 34H38V30H14.84C14.56 30 14.34 29.78 14.34 29.5L14.4 29.26L16.2 26H31.1C32.6 26 33.92 25.18 34.6 23.94L41.76 10.96C41.92 10.68 42 10.34 42 10C42 8.9 41.1 8 40 8H10.42L8.54 4H2ZM34 36C31.8 36 30.02 37.8 30.02 40C30.02 42.2 31.8 44 34 44C36.2 44 38 42.2 38 40C38 37.8 36.2 36 34 36Z" fill="url(#paint0_linear_7_204)"/>
</g>
<defs>
<linearGradient id="paint0_linear_7_204" x1="2" y1="44" x2="42" y2="44" gradientUnits="userSpaceOnUse">
<stop stop-color="#F00B51"/>
<stop offset="1" stop-color="#730062"/>
</linearGradient>
<clipPath id="clip0_7_204">
<rect width="48" height="48" fill="white"/>
</clipPath>
</defs>
</svg>
